<?xml version="1.0" encoding="utf-8" standalone="no"?>
<!DOCTYPE svg PUBLIC "-//W3C//DTD SVG 1.1//EN"
  "http://www.w3.org/Graphics/SVG/1.1/DTD/svg11.dtd">
<svg xmlns:xlink="http://www.w3.org/1999/xlink" width="977.805443pt" height="402.88pt" viewBox="0 0 977.805443 402.88" xmlns="http://www.w3.org/2000/svg" version="1.1">
 <metadata>
  <rdf:RDF xmlns:dc="http://purl.org/dc/elements/1.1/" xmlns:cc="http://creativecommons.org/ns#" xmlns:rdf="http://www.w3.org/1999/02/22-rdf-syntax-ns#">
   <cc:Work>
    <dc:type rdf:resource="http://purl.org/dc/dcmitype/StillImage"/>
    <dc:date>2026-06-10T11:42:49.866495</dc:date>
    <dc:format>image/svg+xml</dc:format>
    <dc:creator>
     <cc:Agent>
      <dc:title>Matplotlib v3.10.8, https://matplotlib.org/</dc:title>
     </cc:Agent>
    </dc:creator>
   </cc:Work>
  </rdf:RDF>
 </metadata>
 <defs>
  <style type="text/css">*{stroke-linejoin: round; stroke-linecap: butt}</style>
 </defs>
 <g id="figure_1">
  <g id="patch_1">
   <path d="M 0 402.88 
L 977.805443 402.88 
L 977.805443 0 
L 0 0 
z
" style="fill: #ffffff"/>
  </g>
  <g id="axes_1">
   <g id="patch_2">
    <path d="M 261.828 86.26 
L 252.828 98.86 
L 243.828 86.26 
L 261.828 86.26 
z
" clip-path="url(#pe5a6a8bcc9)" style="fill: none; stroke: #000000; stroke-width: 2; stroke-linecap: round"/>
   </g>
   <g id="patch_3">
    <path d="M 315.828 102.46 
L 324.828 89.86 
L 333.828 102.46 
L 315.828 102.46 
z
" clip-path="url(#pe5a6a8bcc9)" style="fill: none; stroke: #000000; stroke-width: 2; stroke-linecap: round"/>
   </g>
   <g id="patch_4">
    <path d="M 315.828 239.26 
L 324.828 226.66 
L 333.828 239.26 
L 315.828 239.26 
z
" clip-path="url(#pe5a6a8bcc9)" style="fill: none; stroke: #000000; stroke-width: 2; stroke-linecap: round"/>
   </g>
   <g id="line2d_1">
    <path d="M 65.628 56.56 
L 83.628 56.56 
L 86.628 47.56 
L 92.628 65.56 
L 98.628 47.56 
L 104.628 65.56 
L 110.628 47.56 
L 116.628 65.56 
L 119.628 56.56 
L 137.628 56.56 
" clip-path="url(#pe5a6a8bcc9)" style="fill: none; stroke: #000000; stroke-width: 2; stroke-linecap: round"/>
   </g>
   <g id="line2d_2">
    <path d="M 137.628 56.56 
L 137.628 89.32 
M 146.628 89.32 
L 128.628 89.32 
M 146.628 95.8 
L 128.628 95.8 
M 137.628 95.8 
L 137.628 128.56 
" clip-path="url(#pe5a6a8bcc9)" style="fill: none; stroke: #000000; stroke-width: 2; stroke-linecap: round"/>
   </g>
   <g id="line2d_3">
    <path d="M 137.628 128.56 
L 137.628 142.96 
L 128.628 142.96 
L 146.628 142.96 
M 131.328 147.28 
L 143.928 147.28 
M 135.828 151.6 
L 139.428 151.6 
" clip-path="url(#pe5a6a8bcc9)" style="fill: none; stroke: #000000; stroke-width: 2; stroke-linecap: round"/>
   </g>
   <g id="line2d_4">
    <path d="M 137.628 56.56 
L 195.228 56.56 
L 252.828 56.56 
" clip-path="url(#pe5a6a8bcc9)" style="fill: none; stroke: #000000; stroke-width: 2; stroke-linecap: round"/>
   </g>
   <g id="line2d_5">
    <path d="M 252.828 56.56 
L 252.828 86.26 
M 261.828 98.86 
L 243.828 98.86 
M 252.828 98.86 
L 252.828 128.56 
" clip-path="url(#pe5a6a8bcc9)" style="fill: none; stroke: #000000; stroke-width: 2; stroke-linecap: round"/>
   </g>
   <g id="line2d_6">
    <path d="M 284.906098 81.767727 
L 283.288025 82.454388 
L 281.832126 83.082023 
L 280.531498 83.653143 
L 279.379242 84.170261 
L 278.368456 84.635887 
L 277.492239 85.052535 
L 276.743691 85.422715 
L 276.11591 85.748939 
L 275.601995 86.033719 
L 275.195046 86.279567 
L 274.888161 86.488995 
L 274.674439 86.664514 
L 274.54698 86.808636 
L 274.498882 86.923873 
L 274.523244 87.012736 
L 274.613166 87.077738 
L 274.761746 87.12139 
L 274.962083 87.146203 
L 275.207277 87.154691 
L 275.490427 87.149363 
L 275.804631 87.132733 
L 276.142988 87.107312 
L 276.498598 87.075611 
L 276.864559 87.040143 
L 277.233971 87.003418 
L 277.599932 86.96795 
L 277.955542 86.936249 
L 278.2939 86.910828 
L 278.608104 86.894197 
L 278.891253 86.88887 
L 279.136447 86.897357 
L 279.336785 86.922171 
L 279.485365 86.965823 
L 279.575287 87.030825 
L 279.599649 87.119688 
L 279.551551 87.234925 
L 279.424092 87.379047 
L 279.21037 87.554566 
L 278.903485 87.763994 
L 278.496535 88.009842 
L 277.982621 88.294622 
L 277.35484 88.620846 
L 276.606291 88.991026 
L 275.730075 89.407673 
L 274.719289 89.8733 
L 273.567032 90.390418 
L 272.266405 90.961538 
L 270.810505 91.589173 
L 269.192432 92.275834 
" clip-path="url(#pe5a6a8bcc9)" style="fill: none; stroke: #000000; stroke-width: 2; stroke-linecap: round"/>
   </g>
   <g id="line2d_7">
    <path d="M 282.443553 75.00194 
L 280.82548 75.688601 
L 279.369581 76.316236 
L 278.068953 76.887356 
L 276.916697 77.404474 
L 275.905911 77.8701 
L 275.029694 78.286748 
L 274.281146 78.656928 
L 273.653365 78.983152 
L 273.13945 79.267932 
L 272.732501 79.51378 
L 272.425616 79.723208 
L 272.211894 79.898727 
L 272.084434 80.042849 
L 272.036336 80.158086 
L 272.060699 80.246949 
L 272.150621 80.311951 
L 272.299201 80.355603 
L 272.499538 80.380417 
L 272.744732 80.388904 
L 273.027882 80.383576 
L 273.342086 80.366946 
L 273.680443 80.341525 
L 274.036053 80.309824 
L 274.402014 80.274356 
L 274.771426 80.237631 
L 275.137387 80.202163 
L 275.492997 80.170462 
L 275.831355 80.145041 
L 276.145559 80.12841 
L 276.428708 80.123083 
L 276.673902 80.13157 
L 276.87424 80.156384 
L 277.02282 80.200036 
L 277.112742 80.265038 
L 277.137104 80.353901 
L 277.089006 80.469138 
L 276.961547 80.61326 
L 276.747825 80.788779 
L 276.44094 80.998207 
L 276.03399 81.244055 
L 275.520076 81.528835 
L 274.892295 81.855059 
L 274.143746 82.225239 
L 273.26753 82.641887 
L 272.256744 83.107513 
L 271.104487 83.624631 
L 269.80386 84.195751 
L 268.34796 84.823386 
L 266.729887 85.510047 
" clip-path="url(#pe5a6a8bcc9)" style="fill: none; stroke: #000000; stroke-width: 2; stroke-linecap: round"/>
   </g>
   <g id="line2d_8">
    <path d="M 270.810505 91.589173 
L 272.532108 90.928916 
" clip-path="url(#pe5a6a8bcc9)" style="fill: none; stroke: #000000; stroke-width: 2; stroke-linecap: round"/>
   </g>
   <g id="patch_5">
    <path d="M 273.563384 93.617944 
L 265.809539 93.507106 
L 271.500832 88.239889 
z
" clip-path="url(#pe5a6a8bcc9)"/>
   </g>
   <g id="line2d_9">
    <path d="M 268.34796 84.823386 
L 270.069563 84.163129 
" clip-path="url(#pe5a6a8bcc9)" style="fill: none; stroke: #000000; stroke-width: 2; stroke-linecap: round"/>
   </g>
   <g id="patch_6">
    <path d="M 271.100839 86.852157 
L 263.346994 86.741319 
L 269.038287 81.474102 
z
" clip-path="url(#pe5a6a8bcc9)"/>
   </g>
   <g id="line2d_10">
    <path d="M 252.828 128.56 
L 252.828 146.56 
L 252.828 164.56 
" clip-path="url(#pe5a6a8bcc9)" style="fill: none; stroke: #000000; stroke-width: 2; stroke-linecap: round"/>
   </g>
   <g id="line2d_11">
    <path d="M 252.828 164.56 
L 270.828 164.56 
L 273.828 155.56 
L 279.828 173.56 
L 285.828 155.56 
L 291.828 173.56 
L 297.828 155.56 
L 303.828 173.56 
L 306.828 164.56 
L 324.828 164.56 
" clip-path="url(#pe5a6a8bcc9)" style="fill: none; stroke: #000000; stroke-width: 2; stroke-linecap: round"/>
   </g>
   <g id="line2d_12">
    <path d="M 324.828 164.56 
L 324.828 148.36 
L 324.828 132.16 
" clip-path="url(#pe5a6a8bcc9)" style="fill: none; stroke: #000000; stroke-width: 2; stroke-linecap: round"/>
   </g>
   <g id="line2d_13">
    <path d="M 324.828 132.16 
L 324.828 102.46 
M 315.828 89.86 
L 333.828 89.86 
M 324.828 89.86 
L 324.828 60.16 
" clip-path="url(#pe5a6a8bcc9)" style="fill: none; stroke: #000000; stroke-width: 2; stroke-linecap: round"/>
   </g>
   <g id="line2d_14">
    <path d="M 324.828 60.16 
L 324.828 45.76 
" clip-path="url(#pe5a6a8bcc9)" style="fill: none; stroke: #000000; stroke-width: 2; stroke-linecap: round"/>
   </g>
   <g id="line2d_15">
    <path d="M 324.828 45.76 
L 318.078 45.76 
" clip-path="url(#pe5a6a8bcc9)" style="fill: none; stroke: #000000; stroke-width: 2; stroke-linecap: round"/>
   </g>
   <g id="line2d_16">
    <path d="M 324.828 45.76 
L 331.578 45.76 
" clip-path="url(#pe5a6a8bcc9)" style="fill: none; stroke: #000000; stroke-width: 2; stroke-linecap: round"/>
   </g>
   <g id="line2d_17">
    <path d="M 324.828 164.56 
L 324.828 180.76 
L 324.828 196.96 
" clip-path="url(#pe5a6a8bcc9)" style="fill: none; stroke: #000000; stroke-width: 2; stroke-linecap: round"/>
   </g>
   <g id="line2d_18">
    <path d="M 324.828 196.96 
L 324.828 226.66 
M 315.828 226.66 
L 333.828 226.66 
M 324.828 239.26 
L 324.828 268.96 
" clip-path="url(#pe5a6a8bcc9)" style="fill: none; stroke: #000000; stroke-width: 2; stroke-linecap: round"/>
   </g>
   <g id="line2d_19">
    <path d="M 324.828 268.96 
L 324.828 283.36 
L 315.828 283.36 
L 333.828 283.36 
M 318.528 287.68 
L 331.128 287.68 
M 323.028 292 
L 326.628 292 
" clip-path="url(#pe5a6a8bcc9)" style="fill: none; stroke: #000000; stroke-width: 2; stroke-linecap: round"/>
   </g>
   <g id="line2d_20">
    <path d="M 324.828 164.56 
L 353.628 164.56 
L 382.428 164.56 
" clip-path="url(#pe5a6a8bcc9)" style="fill: none; stroke: #000000; stroke-width: 2; stroke-linecap: round"/>
   </g>
   <g id="line2d_21">
    <path d="M 404.928 187.06 
L 404.928 142.06 
L 482.870286 187.06 
L 404.928 232.06 
L 404.928 187.06 
M 482.870286 187.06 
" clip-path="url(#pe5a6a8bcc9)" style="fill: none; stroke: #000000; stroke-width: 2; stroke-linecap: round"/>
   </g>
   <g id="line2d_22">
    <path d="M 411.070786 164.56 
L 418.270786 164.56 
" clip-path="url(#pe5a6a8bcc9)" style="fill: none; stroke: #000000; stroke-width: 2; stroke-linecap: round"/>
   </g>
   <g id="line2d_23">
    <path d="M 411.070786 209.56 
L 418.270786 209.56 
" clip-path="url(#pe5a6a8bcc9)" style="fill: none; stroke: #000000; stroke-width: 2; stroke-linecap: round"/>
   </g>
   <g id="line2d_24">
    <path d="M 414.670786 213.16 
L 414.670786 205.96 
" clip-path="url(#pe5a6a8bcc9)" style="fill: none; stroke: #000000; stroke-width: 2; stroke-linecap: round"/>
   </g>
   <g id="line2d_25">
    <path d="M 382.428 164.56 
L 404.928 164.56 
" clip-path="url(#pe5a6a8bcc9)" style="fill: none; stroke: #000000; stroke-width: 2; stroke-linecap: round"/>
   </g>
   <g id="line2d_26">
    <path d="M 382.428 209.56 
L 404.928 209.56 
" clip-path="url(#pe5a6a8bcc9)" style="fill: none; stroke: #000000; stroke-width: 2; stroke-linecap: round"/>
   </g>
   <g id="line2d_27">
    <path d="M 482.870286 187.06 
L 505.370286 187.06 
" clip-path="url(#pe5a6a8bcc9)" style="fill: none; stroke: #000000; stroke-width: 2; stroke-linecap: round"/>
   </g>
   <g id="line2d_28">
    <path d="M 382.428 164.56 
L 382.428 121.36 
L 382.428 78.16 
" clip-path="url(#pe5a6a8bcc9)" style="fill: none; stroke: #000000; stroke-width: 2; stroke-linecap: round"/>
   </g>
   <g id="line2d_29">
    <path d="M 382.428 78.16 
L 429.228 78.16 
L 432.228 69.16 
L 438.228 87.16 
L 444.228 69.16 
L 450.228 87.16 
L 456.228 69.16 
L 462.228 87.16 
L 465.228 78.16 
L 512.028 78.16 
" clip-path="url(#pe5a6a8bcc9)" style="fill: none; stroke: #000000; stroke-width: 2; stroke-linecap: round"/>
   </g>
   <g id="line2d_30">
    <path d="M 512.028 78.16 
L 512.028 132.61 
L 512.028 187.06 
" clip-path="url(#pe5a6a8bcc9)" style="fill: none; stroke: #000000; stroke-width: 2; stroke-linecap: round"/>
   </g>
   <g id="line2d_31">
    <path d="M 382.428 78.16 
L 382.428 54.76 
L 382.428 31.36 
" clip-path="url(#pe5a6a8bcc9)" style="fill: none; stroke: #000000; stroke-width: 2; stroke-linecap: round"/>
   </g>
   <g id="line2d_32">
    <path d="M 382.428 31.36 
L 443.988 31.36 
M 443.988 22.36 
L 443.988 40.36 
M 450.468 22.36 
L 450.468 40.36 
M 450.468 31.36 
L 512.028 31.36 
" clip-path="url(#pe5a6a8bcc9)" style="fill: none; stroke: #000000; stroke-width: 2; stroke-linecap: round"/>
   </g>
   <g id="line2d_33">
    <path d="M 512.028 31.36 
L 512.028 54.76 
L 512.028 78.16 
" clip-path="url(#pe5a6a8bcc9)" style="fill: none; stroke: #000000; stroke-width: 2; stroke-linecap: round"/>
   </g>
   <g id="line2d_34">
    <path d="M 382.428 209.56 
L 382.428 256.36 
L 382.428 303.16 
" clip-path="url(#pe5a6a8bcc9)" style="fill: none; stroke: #000000; stroke-width: 2; stroke-linecap: round"/>
   </g>
   <g id="line2d_35">
    <path d="M 382.428 303.16 
L 310.428 303.16 
L 238.428 303.16 
" clip-path="url(#pe5a6a8bcc9)" style="fill: none; stroke: #000000; stroke-width: 2; stroke-linecap: round"/>
   </g>
   <g id="line2d_36">
    <path d="M 238.428 303.16 
L 238.428 335.92 
M 247.428 335.92 
L 229.428 335.92 
M 247.428 342.4 
L 229.428 342.4 
M 238.428 342.4 
L 238.428 375.16 
" clip-path="url(#pe5a6a8bcc9)" style="fill: none; stroke: #000000; stroke-width: 2; stroke-linecap: round"/>
   </g>
   <g id="line2d_37">
    <path d="M 238.428 375.16 
L 238.428 389.56 
L 229.428 389.56 
L 247.428 389.56 
M 232.128 393.88 
L 244.728 393.88 
M 236.628 398.2 
L 240.228 398.2 
" clip-path="url(#pe5a6a8bcc9)" style="fill: none; stroke: #000000; stroke-width: 2; stroke-linecap: round"/>
   </g>
   <g id="line2d_38">
    <path d="M 238.428 303.16 
L 220.428 303.16 
L 217.428 312.16 
L 211.428 294.16 
L 205.428 312.16 
L 199.428 294.16 
L 193.428 312.16 
L 187.428 294.16 
L 184.428 303.16 
L 166.428 303.16 
" clip-path="url(#pe5a6a8bcc9)" style="fill: none; stroke: #000000; stroke-width: 2; stroke-linecap: round"/>
   </g>
   <g id="line2d_39">
    <path d="M 505.370286 187.06 
L 508.699143 187.06 
L 512.028 187.06 
" clip-path="url(#pe5a6a8bcc9)" style="fill: none; stroke: #000000; stroke-width: 2; stroke-linecap: round"/>
   </g>
   <g id="line2d_40">
    <path d="M 512.028 187.06 
L 540.828 187.06 
L 569.628 187.06 
" clip-path="url(#pe5a6a8bcc9)" style="fill: none; stroke: #000000; stroke-width: 2; stroke-linecap: round"/>
   </g>
   <g id="line2d_41">
    <path d="M 569.628 187.06 
L 584.028 187.06 
L 598.428 187.06 
" clip-path="url(#pe5a6a8bcc9)" style="fill: none; stroke: #000000; stroke-width: 2; stroke-linecap: round"/>
   </g>
   <g id="line2d_42">
    <path d="M 598.428 187.06 
L 598.428 198.22 
L 598.428 209.38 
" clip-path="url(#pe5a6a8bcc9)" style="fill: none; stroke: #000000; stroke-width: 2; stroke-linecap: round"/>
   </g>
   <g id="line2d_43">
    <path d="M 598.428 209.38 
L 616.428 209.38 
L 634.428 209.38 
" clip-path="url(#pe5a6a8bcc9)" style="fill: none; stroke: #000000; stroke-width: 2; stroke-linecap: round"/>
   </g>
   <g id="line2d_44">
    <path d="M 656.928 186.88 
L 656.928 141.88 
L 734.870286 186.88 
L 656.928 231.88 
L 656.928 186.88 
M 734.870286 186.88 
" clip-path="url(#pe5a6a8bcc9)" style="fill: none; stroke: #000000; stroke-width: 2; stroke-linecap: round"/>
   </g>
   <g id="line2d_45">
    <path d="M 663.070786 164.38 
L 670.270786 164.38 
" clip-path="url(#pe5a6a8bcc9)" style="fill: none; stroke: #000000; stroke-width: 2; stroke-linecap: round"/>
   </g>
   <g id="line2d_46">
    <path d="M 663.070786 209.38 
L 670.270786 209.38 
" clip-path="url(#pe5a6a8bcc9)" style="fill: none; stroke: #000000; stroke-width: 2; stroke-linecap: round"/>
   </g>
   <g id="line2d_47">
    <path d="M 666.670786 212.98 
L 666.670786 205.78 
" clip-path="url(#pe5a6a8bcc9)" style="fill: none; stroke: #000000; stroke-width: 2; stroke-linecap: round"/>
   </g>
   <g id="line2d_48">
    <path d="M 634.428 164.38 
L 656.928 164.38 
" clip-path="url(#pe5a6a8bcc9)" style="fill: none; stroke: #000000; stroke-width: 2; stroke-linecap: round"/>
   </g>
   <g id="line2d_49">
    <path d="M 634.428 209.38 
L 656.928 209.38 
" clip-path="url(#pe5a6a8bcc9)" style="fill: none; stroke: #000000; stroke-width: 2; stroke-linecap: round"/>
   </g>
   <g id="line2d_50">
    <path d="M 734.870286 186.88 
L 757.370286 186.88 
" clip-path="url(#pe5a6a8bcc9)" style="fill: none; stroke: #000000; stroke-width: 2; stroke-linecap: round"/>
   </g>
   <g id="line2d_51">
    <path d="M 634.428 164.38 
L 616.428 164.38 
L 598.428 164.38 
" clip-path="url(#pe5a6a8bcc9)" style="fill: none; stroke: #000000; stroke-width: 2; stroke-linecap: round"/>
   </g>
   <g id="line2d_52">
    <path d="M 598.428 164.38 
L 598.428 135.58 
L 598.428 106.78 
" clip-path="url(#pe5a6a8bcc9)" style="fill: none; stroke: #000000; stroke-width: 2; stroke-linecap: round"/>
   </g>
   <g id="line2d_53">
    <path d="M 598.428 106.78 
L 565.668 106.78 
M 565.668 115.78 
L 565.668 97.78 
M 559.188 115.78 
L 559.188 97.78 
M 559.188 106.78 
L 526.428 106.78 
" clip-path="url(#pe5a6a8bcc9)" style="fill: none; stroke: #000000; stroke-width: 2; stroke-linecap: round"/>
   </g>
   <g id="line2d_54">
    <path d="M 526.428 106.78 
L 526.428 121.18 
L 517.428 121.18 
L 535.428 121.18 
M 520.128 125.5 
L 532.728 125.5 
M 524.628 129.82 
L 528.228 129.82 
" clip-path="url(#pe5a6a8bcc9)" style="fill: none; stroke: #000000; stroke-width: 2; stroke-linecap: round"/>
   </g>
   <g id="line2d_55">
    <path d="M 598.428 106.78 
L 598.428 88.78 
L 589.428 85.78 
L 607.428 79.78 
L 589.428 73.78 
L 607.428 67.78 
L 589.428 61.78 
L 607.428 55.78 
L 598.428 52.78 
L 598.428 34.78 
" clip-path="url(#pe5a6a8bcc9)" style="fill: none; stroke: #000000; stroke-width: 2; stroke-linecap: round"/>
   </g>
   <g id="line2d_56">
    <path d="M 757.370286 186.88 
L 775.370286 186.88 
L 778.370286 177.88 
L 784.370286 195.88 
L 790.370286 177.88 
L 796.370286 195.88 
L 802.370286 177.88 
L 808.370286 195.88 
L 811.370286 186.88 
L 829.370286 186.88 
" clip-path="url(#pe5a6a8bcc9)" style="fill: none; stroke: #000000; stroke-width: 2; stroke-linecap: round"/>
   </g>
   <g id="line2d_57">
    <path d="M 829.370286 186.88 
L 841.970286 186.88 
L 854.570286 186.88 
" clip-path="url(#pe5a6a8bcc9)" style="fill: none; stroke: #000000; stroke-width: 2; stroke-linecap: round"/>
   </g>
   <g id="text_1">
    <!-- R1 -->
    <g transform="translate(94.306984 31.026406) scale(0.11 -0.11)">
     <defs>
      <path id="DejaVuSans-52" d="M 2841 2188 
Q 3044 2119 3236 1894 
Q 3428 1669 3622 1275 
L 4263 0 
L 3584 0 
L 2988 1197 
Q 2756 1666 2539 1819 
Q 2322 1972 1947 1972 
L 1259 1972 
L 1259 0 
L 628 0 
L 628 4666 
L 2053 4666 
Q 2853 4666 3247 4331 
Q 3641 3997 3641 3322 
Q 3641 2881 3436 2590 
Q 3231 2300 2841 2188 
z
M 1259 4147 
L 1259 2491 
L 2053 2491 
Q 2509 2491 2742 2702 
Q 2975 2913 2975 3322 
Q 2975 3731 2742 3939 
Q 2509 4147 2053 4147 
L 1259 4147 
z
" transform="scale(0.015625)"/>
      <path id="DejaVuSans-31" d="M 794 531 
L 1825 531 
L 1825 4091 
L 703 3866 
L 703 4441 
L 1819 4666 
L 2450 4666 
L 2450 531 
L 3481 531 
L 3481 0 
L 794 0 
L 794 531 
z
" transform="scale(0.015625)"/>
     </defs>
     <use xlink:href="#DejaVuSans-52"/>
     <use xlink:href="#DejaVuSans-31" transform="translate(69.482422 0)"/>
    </g>
    <!-- 100k -->
    <g transform="translate(87.945031 41.672344) scale(0.11 -0.11)">
     <defs>
      <path id="DejaVuSans-30" d="M 2034 4250 
Q 1547 4250 1301 3770 
Q 1056 3291 1056 2328 
Q 1056 1369 1301 889 
Q 1547 409 2034 409 
Q 2525 409 2770 889 
Q 3016 1369 3016 2328 
Q 3016 3291 2770 3770 
Q 2525 4250 2034 4250 
z
M 2034 4750 
Q 2819 4750 3233 4129 
Q 3647 3509 3647 2328 
Q 3647 1150 3233 529 
Q 2819 -91 2034 -91 
Q 1250 -91 836 529 
Q 422 1150 422 2328 
Q 422 3509 836 4129 
Q 1250 4750 2034 4750 
z
" transform="scale(0.015625)"/>
      <path id="DejaVuSans-6b" d="M 581 4863 
L 1159 4863 
L 1159 1991 
L 2875 3500 
L 3609 3500 
L 1753 1863 
L 3688 0 
L 2938 0 
L 1159 1709 
L 1159 0 
L 581 0 
L 581 4863 
z
" transform="scale(0.015625)"/>
     </defs>
     <use xlink:href="#DejaVuSans-31"/>
     <use xlink:href="#DejaVuSans-30" transform="translate(63.623047 0)"/>
     <use xlink:href="#DejaVuSans-30" transform="translate(127.246094 0)"/>
     <use xlink:href="#DejaVuSans-6b" transform="translate(190.869141 0)"/>
    </g>
   </g>
   <g id="text_2">
    <!-- C1 -->
    <g transform="translate(161.028 111.949375) scale(0.11 -0.11)">
     <defs>
      <path id="DejaVuSans-43" d="M 4122 4306 
L 4122 3641 
Q 3803 3938 3442 4084 
Q 3081 4231 2675 4231 
Q 1875 4231 1450 3742 
Q 1025 3253 1025 2328 
Q 1025 1406 1450 917 
Q 1875 428 2675 428 
Q 3081 428 3442 575 
Q 3803 722 4122 1019 
L 4122 359 
Q 3791 134 3420 21 
Q 3050 -91 2638 -91 
Q 1578 -91 968 557 
Q 359 1206 359 2328 
Q 359 3453 968 4101 
Q 1578 4750 2638 4750 
Q 3056 4750 3426 4639 
Q 3797 4528 4122 4306 
z
" transform="scale(0.015625)"/>
     </defs>
     <use xlink:href="#DejaVuSans-43"/>
     <use xlink:href="#DejaVuSans-31" transform="translate(69.824219 0)"/>
    </g>
    <!-- 100n 50V -->
    <g transform="translate(161.028 122.595312) scale(0.11 -0.11)">
     <defs>
      <path id="DejaVuSans-6e" d="M 3513 2113 
L 3513 0 
L 2938 0 
L 2938 2094 
Q 2938 2591 2744 2837 
Q 2550 3084 2163 3084 
Q 1697 3084 1428 2787 
Q 1159 2491 1159 1978 
L 1159 0 
L 581 0 
L 581 3500 
L 1159 3500 
L 1159 2956 
Q 1366 3272 1645 3428 
Q 1925 3584 2291 3584 
Q 2894 3584 3203 3211 
Q 3513 2838 3513 2113 
z
" transform="scale(0.015625)"/>
      <path id="DejaVuSans-20" transform="scale(0.015625)"/>
      <path id="DejaVuSans-35" d="M 691 4666 
L 3169 4666 
L 3169 4134 
L 1269 4134 
L 1269 2991 
Q 1406 3038 1543 3061 
Q 1681 3084 1819 3084 
Q 2600 3084 3056 2656 
Q 3513 2228 3513 1497 
Q 3513 744 3044 326 
Q 2575 -91 1722 -91 
Q 1428 -91 1123 -41 
Q 819 9 494 109 
L 494 744 
Q 775 591 1075 516 
Q 1375 441 1709 441 
Q 2250 441 2565 725 
Q 2881 1009 2881 1497 
Q 2881 1984 2565 2268 
Q 2250 2553 1709 2553 
Q 1456 2553 1204 2497 
Q 953 2441 691 2322 
L 691 4666 
z
" transform="scale(0.015625)"/>
      <path id="DejaVuSans-56" d="M 1831 0 
L 50 4666 
L 709 4666 
L 2188 738 
L 3669 4666 
L 4325 4666 
L 2547 0 
L 1831 0 
z
" transform="scale(0.015625)"/>
     </defs>
     <use xlink:href="#DejaVuSans-31"/>
     <use xlink:href="#DejaVuSans-30" transform="translate(63.623047 0)"/>
     <use xlink:href="#DejaVuSans-30" transform="translate(127.246094 0)"/>
     <use xlink:href="#DejaVuSans-6e" transform="translate(190.869141 0)"/>
     <use xlink:href="#DejaVuSans-20" transform="translate(254.248047 0)"/>
     <use xlink:href="#DejaVuSans-35" transform="translate(286.035156 0)"/>
     <use xlink:href="#DejaVuSans-30" transform="translate(349.658203 0)"/>
     <use xlink:href="#DejaVuSans-56" transform="translate(413.28125 0)"/>
    </g>
    <!-- C0G -->
    <g transform="translate(161.028 133.24125) scale(0.11 -0.11)">
     <defs>
      <path id="DejaVuSans-47" d="M 3809 666 
L 3809 1919 
L 2778 1919 
L 2778 2438 
L 4434 2438 
L 4434 434 
Q 4069 175 3628 42 
Q 3188 -91 2688 -91 
Q 1594 -91 976 548 
Q 359 1188 359 2328 
Q 359 3472 976 4111 
Q 1594 4750 2688 4750 
Q 3144 4750 3555 4637 
Q 3966 4525 4313 4306 
L 4313 3634 
Q 3963 3931 3569 4081 
Q 3175 4231 2741 4231 
Q 1884 4231 1454 3753 
Q 1025 3275 1025 2328 
Q 1025 1384 1454 906 
Q 1884 428 2741 428 
Q 3075 428 3337 486 
Q 3600 544 3809 666 
z
" transform="scale(0.015625)"/>
     </defs>
     <use xlink:href="#DejaVuSans-43"/>
     <use xlink:href="#DejaVuSans-30" transform="translate(69.824219 0)"/>
     <use xlink:href="#DejaVuSans-47" transform="translate(133.447266 0)"/>
    </g>
   </g>
   <g id="text_3">
    <!-- D1  S13360-2050VE -->
    <g transform="translate(304.706098 156.795313) scale(0.11 -0.11)">
     <defs>
      <path id="DejaVuSans-44" d="M 1259 4147 
L 1259 519 
L 2022 519 
Q 2988 519 3436 956 
Q 3884 1394 3884 2338 
Q 3884 3275 3436 3711 
Q 2988 4147 2022 4147 
L 1259 4147 
z
M 628 4666 
L 1925 4666 
Q 3281 4666 3915 4102 
Q 4550 3538 4550 2338 
Q 4550 1131 3912 565 
Q 3275 0 1925 0 
L 628 0 
L 628 4666 
z
" transform="scale(0.015625)"/>
      <path id="DejaVuSans-53" d="M 3425 4513 
L 3425 3897 
Q 3066 4069 2747 4153 
Q 2428 4238 2131 4238 
Q 1616 4238 1336 4038 
Q 1056 3838 1056 3469 
Q 1056 3159 1242 3001 
Q 1428 2844 1947 2747 
L 2328 2669 
Q 3034 2534 3370 2195 
Q 3706 1856 3706 1288 
Q 3706 609 3251 259 
Q 2797 -91 1919 -91 
Q 1588 -91 1214 -16 
Q 841 59 441 206 
L 441 856 
Q 825 641 1194 531 
Q 1563 422 1919 422 
Q 2459 422 2753 634 
Q 3047 847 3047 1241 
Q 3047 1584 2836 1778 
Q 2625 1972 2144 2069 
L 1759 2144 
Q 1053 2284 737 2584 
Q 422 2884 422 3419 
Q 422 4038 858 4394 
Q 1294 4750 2059 4750 
Q 2388 4750 2728 4690 
Q 3069 4631 3425 4513 
z
" transform="scale(0.015625)"/>
      <path id="DejaVuSans-33" d="M 2597 2516 
Q 3050 2419 3304 2112 
Q 3559 1806 3559 1356 
Q 3559 666 3084 287 
Q 2609 -91 1734 -91 
Q 1441 -91 1130 -33 
Q 819 25 488 141 
L 488 750 
Q 750 597 1062 519 
Q 1375 441 1716 441 
Q 2309 441 2620 675 
Q 2931 909 2931 1356 
Q 2931 1769 2642 2001 
Q 2353 2234 1838 2234 
L 1294 2234 
L 1294 2753 
L 1863 2753 
Q 2328 2753 2575 2939 
Q 2822 3125 2822 3475 
Q 2822 3834 2567 4026 
Q 2313 4219 1838 4219 
Q 1578 4219 1281 4162 
Q 984 4106 628 3988 
L 628 4550 
Q 988 4650 1302 4700 
Q 1616 4750 1894 4750 
Q 2613 4750 3031 4423 
Q 3450 4097 3450 3541 
Q 3450 3153 3228 2886 
Q 3006 2619 2597 2516 
z
" transform="scale(0.015625)"/>
      <path id="DejaVuSans-36" d="M 2113 2584 
Q 1688 2584 1439 2293 
Q 1191 2003 1191 1497 
Q 1191 994 1439 701 
Q 1688 409 2113 409 
Q 2538 409 2786 701 
Q 3034 994 3034 1497 
Q 3034 2003 2786 2293 
Q 2538 2584 2113 2584 
z
M 3366 4563 
L 3366 3988 
Q 3128 4100 2886 4159 
Q 2644 4219 2406 4219 
Q 1781 4219 1451 3797 
Q 1122 3375 1075 2522 
Q 1259 2794 1537 2939 
Q 1816 3084 2150 3084 
Q 2853 3084 3261 2657 
Q 3669 2231 3669 1497 
Q 3669 778 3244 343 
Q 2819 -91 2113 -91 
Q 1303 -91 875 529 
Q 447 1150 447 2328 
Q 447 3434 972 4092 
Q 1497 4750 2381 4750 
Q 2619 4750 2861 4703 
Q 3103 4656 3366 4563 
z
" transform="scale(0.015625)"/>
      <path id="DejaVuSans-2d" d="M 313 2009 
L 1997 2009 
L 1997 1497 
L 313 1497 
L 313 2009 
z
" transform="scale(0.015625)"/>
      <path id="DejaVuSans-32" d="M 1228 531 
L 3431 531 
L 3431 0 
L 469 0 
L 469 531 
Q 828 903 1448 1529 
Q 2069 2156 2228 2338 
Q 2531 2678 2651 2914 
Q 2772 3150 2772 3378 
Q 2772 3750 2511 3984 
Q 2250 4219 1831 4219 
Q 1534 4219 1204 4116 
Q 875 4013 500 3803 
L 500 4441 
Q 881 4594 1212 4672 
Q 1544 4750 1819 4750 
Q 2544 4750 2975 4387 
Q 3406 4025 3406 3419 
Q 3406 3131 3298 2873 
Q 3191 2616 2906 2266 
Q 2828 2175 2409 1742 
Q 1991 1309 1228 531 
z
" transform="scale(0.015625)"/>
      <path id="DejaVuSans-45" d="M 628 4666 
L 3578 4666 
L 3578 4134 
L 1259 4134 
L 1259 2753 
L 3481 2753 
L 3481 2222 
L 1259 2222 
L 1259 531 
L 3634 531 
L 3634 0 
L 628 0 
L 628 4666 
z
" transform="scale(0.015625)"/>
     </defs>
     <use xlink:href="#DejaVuSans-44"/>
     <use xlink:href="#DejaVuSans-31" transform="translate(77.001953 0)"/>
     <use xlink:href="#DejaVuSans-20" transform="translate(140.625 0)"/>
     <use xlink:href="#DejaVuSans-20" transform="translate(172.412109 0)"/>
     <use xlink:href="#DejaVuSans-53" transform="translate(204.199219 0)"/>
     <use xlink:href="#DejaVuSans-31" transform="translate(267.675781 0)"/>
     <use xlink:href="#DejaVuSans-33" transform="translate(331.298828 0)"/>
     <use xlink:href="#DejaVuSans-33" transform="translate(394.921875 0)"/>
     <use xlink:href="#DejaVuSans-36" transform="translate(458.544922 0)"/>
     <use xlink:href="#DejaVuSans-30" transform="translate(522.167969 0)"/>
     <use xlink:href="#DejaVuSans-2d" transform="translate(585.791016 0)"/>
     <use xlink:href="#DejaVuSans-32" transform="translate(621.875 0)"/>
     <use xlink:href="#DejaVuSans-30" transform="translate(685.498047 0)"/>
     <use xlink:href="#DejaVuSans-35" transform="translate(749.121094 0)"/>
     <use xlink:href="#DejaVuSans-30" transform="translate(812.744141 0)"/>
     <use xlink:href="#DejaVuSans-56" transform="translate(876.367188 0)"/>
     <use xlink:href="#DejaVuSans-45" transform="translate(944.775391 0)"/>
    </g>
   </g>
   <g id="text_4">
    <!-- R2  10 -->
    <g transform="translate(271.012297 149.672344) scale(0.11 -0.11)">
     <use xlink:href="#DejaVuSans-52"/>
     <use xlink:href="#DejaVuSans-32" transform="translate(69.482422 0)"/>
     <use xlink:href="#DejaVuSans-20" transform="translate(133.105469 0)"/>
     <use xlink:href="#DejaVuSans-20" transform="translate(164.892578 0)"/>
     <use xlink:href="#DejaVuSans-31" transform="translate(196.679688 0)"/>
     <use xlink:href="#DejaVuSans-30" transform="translate(260.302734 0)"/>
    </g>
   </g>
   <g id="text_5">
    <!-- D2a -->
    <g transform="translate(333.828 70.472344) scale(0.11 -0.11)">
     <defs>
      <path id="DejaVuSans-61" d="M 2194 1759 
Q 1497 1759 1228 1600 
Q 959 1441 959 1056 
Q 959 750 1161 570 
Q 1363 391 1709 391 
Q 2188 391 2477 730 
Q 2766 1069 2766 1631 
L 2766 1759 
L 2194 1759 
z
M 3341 1997 
L 3341 0 
L 2766 0 
L 2766 531 
Q 2569 213 2275 61 
Q 1981 -91 1556 -91 
Q 1019 -91 701 211 
Q 384 513 384 1019 
Q 384 1609 779 1909 
Q 1175 2209 1959 2209 
L 2766 2209 
L 2766 2266 
Q 2766 2663 2505 2880 
Q 2244 3097 1772 3097 
Q 1472 3097 1187 3025 
Q 903 2953 641 2809 
L 641 3341 
Q 956 3463 1253 3523 
Q 1550 3584 1831 3584 
Q 2591 3584 2966 3190 
Q 3341 2797 3341 1997 
z
" transform="scale(0.015625)"/>
     </defs>
     <use xlink:href="#DejaVuSans-44"/>
     <use xlink:href="#DejaVuSans-32" transform="translate(77.001953 0)"/>
     <use xlink:href="#DejaVuSans-61" transform="translate(140.625 0)"/>
    </g>
    <!-- BAV99 -->
    <g transform="translate(333.828 81.118281) scale(0.11 -0.11)">
     <defs>
      <path id="DejaVuSans-42" d="M 1259 2228 
L 1259 519 
L 2272 519 
Q 2781 519 3026 730 
Q 3272 941 3272 1375 
Q 3272 1813 3026 2020 
Q 2781 2228 2272 2228 
L 1259 2228 
z
M 1259 4147 
L 1259 2741 
L 2194 2741 
Q 2656 2741 2882 2914 
Q 3109 3088 3109 3444 
Q 3109 3797 2882 3972 
Q 2656 4147 2194 4147 
L 1259 4147 
z
M 628 4666 
L 2241 4666 
Q 2963 4666 3353 4366 
Q 3744 4066 3744 3513 
Q 3744 3084 3544 2831 
Q 3344 2578 2956 2516 
Q 3422 2416 3680 2098 
Q 3938 1781 3938 1306 
Q 3938 681 3513 340 
Q 3088 0 2303 0 
L 628 0 
L 628 4666 
z
" transform="scale(0.015625)"/>
      <path id="DejaVuSans-41" d="M 2188 4044 
L 1331 1722 
L 3047 1722 
L 2188 4044 
z
M 1831 4666 
L 2547 4666 
L 4325 0 
L 3669 0 
L 3244 1197 
L 1141 1197 
L 716 0 
L 50 0 
L 1831 4666 
z
" transform="scale(0.015625)"/>
      <path id="DejaVuSans-39" d="M 703 97 
L 703 672 
Q 941 559 1184 500 
Q 1428 441 1663 441 
Q 2288 441 2617 861 
Q 2947 1281 2994 2138 
Q 2813 1869 2534 1725 
Q 2256 1581 1919 1581 
Q 1219 1581 811 2004 
Q 403 2428 403 3163 
Q 403 3881 828 4315 
Q 1253 4750 1959 4750 
Q 2769 4750 3195 4129 
Q 3622 3509 3622 2328 
Q 3622 1225 3098 567 
Q 2575 -91 1691 -91 
Q 1453 -91 1209 -44 
Q 966 3 703 97 
z
M 1959 2075 
Q 2384 2075 2632 2365 
Q 2881 2656 2881 3163 
Q 2881 3666 2632 3958 
Q 2384 4250 1959 4250 
Q 1534 4250 1286 3958 
Q 1038 3666 1038 3163 
Q 1038 2656 1286 2365 
Q 1534 2075 1959 2075 
z
" transform="scale(0.015625)"/>
     </defs>
     <use xlink:href="#DejaVuSans-42"/>
     <use xlink:href="#DejaVuSans-41" transform="translate(68.603516 0)"/>
     <use xlink:href="#DejaVuSans-56" transform="translate(130.636719 0)"/>
     <use xlink:href="#DejaVuSans-39" transform="translate(199.044922 0)"/>
     <use xlink:href="#DejaVuSans-39" transform="translate(262.667969 0)"/>
    </g>
   </g>
   <g id="text_6">
    <!-- +3V3 -->
    <g transform="translate(309.458078 39.872344) scale(0.11 -0.11)">
     <defs>
      <path id="DejaVuSans-2b" d="M 2944 4013 
L 2944 2272 
L 4684 2272 
L 4684 1741 
L 2944 1741 
L 2944 0 
L 2419 0 
L 2419 1741 
L 678 1741 
L 678 2272 
L 2419 2272 
L 2419 4013 
L 2944 4013 
z
" transform="scale(0.015625)"/>
     </defs>
     <use xlink:href="#DejaVuSans-2b"/>
     <use xlink:href="#DejaVuSans-33" transform="translate(83.789062 0)"/>
     <use xlink:href="#DejaVuSans-56" transform="translate(147.412109 0)"/>
     <use xlink:href="#DejaVuSans-33" transform="translate(215.820312 0)"/>
    </g>
   </g>
   <g id="text_7">
    <!-- D2b -->
    <g transform="translate(333.828 207.272344) scale(0.11 -0.11)">
     <defs>
      <path id="DejaVuSans-62" d="M 3116 1747 
Q 3116 2381 2855 2742 
Q 2594 3103 2138 3103 
Q 1681 3103 1420 2742 
Q 1159 2381 1159 1747 
Q 1159 1113 1420 752 
Q 1681 391 2138 391 
Q 2594 391 2855 752 
Q 3116 1113 3116 1747 
z
M 1159 2969 
Q 1341 3281 1617 3432 
Q 1894 3584 2278 3584 
Q 2916 3584 3314 3078 
Q 3713 2572 3713 1747 
Q 3713 922 3314 415 
Q 2916 -91 2278 -91 
Q 1894 -91 1617 61 
Q 1341 213 1159 525 
L 1159 0 
L 581 0 
L 581 4863 
L 1159 4863 
L 1159 2969 
z
" transform="scale(0.015625)"/>
     </defs>
     <use xlink:href="#DejaVuSans-44"/>
     <use xlink:href="#DejaVuSans-32" transform="translate(77.001953 0)"/>
     <use xlink:href="#DejaVuSans-62" transform="translate(140.625 0)"/>
    </g>
    <!-- BAV99 -->
    <g transform="translate(333.828 217.918281) scale(0.11 -0.11)">
     <use xlink:href="#DejaVuSans-42"/>
     <use xlink:href="#DejaVuSans-41" transform="translate(68.603516 0)"/>
     <use xlink:href="#DejaVuSans-56" transform="translate(130.636719 0)"/>
     <use xlink:href="#DejaVuSans-39" transform="translate(199.044922 0)"/>
     <use xlink:href="#DejaVuSans-39" transform="translate(262.667969 0)"/>
    </g>
   </g>
   <g id="text_8">
    <!-- U1 -->
    <g transform="translate(436.374456 148.772344) scale(0.11 -0.11)">
     <defs>
      <path id="DejaVuSans-55" d="M 556 4666 
L 1191 4666 
L 1191 1831 
Q 1191 1081 1462 751 
Q 1734 422 2344 422 
Q 2950 422 3222 751 
Q 3494 1081 3494 1831 
L 3494 4666 
L 4128 4666 
L 4128 1753 
Q 4128 841 3676 375 
Q 3225 -91 2344 -91 
Q 1459 -91 1007 375 
Q 556 841 556 1753 
L 556 4666 
z
" transform="scale(0.015625)"/>
     </defs>
     <use xlink:href="#DejaVuSans-55"/>
     <use xlink:href="#DejaVuSans-31" transform="translate(73.193359 0)"/>
    </g>
    <!-- OPA858 -->
    <g transform="translate(422.34344 159.418281) scale(0.11 -0.11)">
     <defs>
      <path id="DejaVuSans-4f" d="M 2522 4238 
Q 1834 4238 1429 3725 
Q 1025 3213 1025 2328 
Q 1025 1447 1429 934 
Q 1834 422 2522 422 
Q 3209 422 3611 934 
Q 4013 1447 4013 2328 
Q 4013 3213 3611 3725 
Q 3209 4238 2522 4238 
z
M 2522 4750 
Q 3503 4750 4090 4092 
Q 4678 3434 4678 2328 
Q 4678 1225 4090 567 
Q 3503 -91 2522 -91 
Q 1538 -91 948 565 
Q 359 1222 359 2328 
Q 359 3434 948 4092 
Q 1538 4750 2522 4750 
z
" transform="scale(0.015625)"/>
      <path id="DejaVuSans-50" d="M 1259 4147 
L 1259 2394 
L 2053 2394 
Q 2494 2394 2734 2622 
Q 2975 2850 2975 3272 
Q 2975 3691 2734 3919 
Q 2494 4147 2053 4147 
L 1259 4147 
z
M 628 4666 
L 2053 4666 
Q 2838 4666 3239 4311 
Q 3641 3956 3641 3272 
Q 3641 2581 3239 2228 
Q 2838 1875 2053 1875 
L 1259 1875 
L 1259 0 
L 628 0 
L 628 4666 
z
" transform="scale(0.015625)"/>
      <path id="DejaVuSans-38" d="M 2034 2216 
Q 1584 2216 1326 1975 
Q 1069 1734 1069 1313 
Q 1069 891 1326 650 
Q 1584 409 2034 409 
Q 2484 409 2743 651 
Q 3003 894 3003 1313 
Q 3003 1734 2745 1975 
Q 2488 2216 2034 2216 
z
M 1403 2484 
Q 997 2584 770 2862 
Q 544 3141 544 3541 
Q 544 4100 942 4425 
Q 1341 4750 2034 4750 
Q 2731 4750 3128 4425 
Q 3525 4100 3525 3541 
Q 3525 3141 3298 2862 
Q 3072 2584 2669 2484 
Q 3125 2378 3379 2068 
Q 3634 1759 3634 1313 
Q 3634 634 3220 271 
Q 2806 -91 2034 -91 
Q 1263 -91 848 271 
Q 434 634 434 1313 
Q 434 1759 690 2068 
Q 947 2378 1403 2484 
z
M 1172 3481 
Q 1172 3119 1398 2916 
Q 1625 2713 2034 2713 
Q 2441 2713 2670 2916 
Q 2900 3119 2900 3481 
Q 2900 3844 2670 4047 
Q 2441 4250 2034 4250 
Q 1625 4250 1398 4047 
Q 1172 3844 1172 3481 
z
" transform="scale(0.015625)"/>
     </defs>
     <use xlink:href="#DejaVuSans-4f"/>
     <use xlink:href="#DejaVuSans-50" transform="translate(78.710938 0)"/>
     <use xlink:href="#DejaVuSans-41" transform="translate(132.638672 0)"/>
     <use xlink:href="#DejaVuSans-38" transform="translate(201.046875 0)"/>
     <use xlink:href="#DejaVuSans-35" transform="translate(264.669922 0)"/>
     <use xlink:href="#DejaVuSans-38" transform="translate(328.292969 0)"/>
    </g>
   </g>
   <g id="text_9">
    <!-- Rf  2k 1% -->
    <g transform="translate(420.816828 63.272344) scale(0.11 -0.11)">
     <defs>
      <path id="DejaVuSans-66" d="M 2375 4863 
L 2375 4384 
L 1825 4384 
Q 1516 4384 1395 4259 
Q 1275 4134 1275 3809 
L 1275 3500 
L 2222 3500 
L 2222 3053 
L 1275 3053 
L 1275 0 
L 697 0 
L 697 3053 
L 147 3053 
L 147 3500 
L 697 3500 
L 697 3744 
Q 697 4328 969 4595 
Q 1241 4863 1831 4863 
L 2375 4863 
z
" transform="scale(0.015625)"/>
      <path id="DejaVuSans-25" d="M 4653 2053 
Q 4381 2053 4226 1822 
Q 4072 1591 4072 1178 
Q 4072 772 4226 539 
Q 4381 306 4653 306 
Q 4919 306 5073 539 
Q 5228 772 5228 1178 
Q 5228 1588 5073 1820 
Q 4919 2053 4653 2053 
z
M 4653 2450 
Q 5147 2450 5437 2106 
Q 5728 1763 5728 1178 
Q 5728 594 5436 251 
Q 5144 -91 4653 -91 
Q 4153 -91 3862 251 
Q 3572 594 3572 1178 
Q 3572 1766 3864 2108 
Q 4156 2450 4653 2450 
z
M 1428 4353 
Q 1159 4353 1004 4120 
Q 850 3888 850 3481 
Q 850 3069 1003 2837 
Q 1156 2606 1428 2606 
Q 1700 2606 1854 2837 
Q 2009 3069 2009 3481 
Q 2009 3884 1853 4118 
Q 1697 4353 1428 4353 
z
M 4250 4750 
L 4750 4750 
L 1831 -91 
L 1331 -91 
L 4250 4750 
z
M 1428 4750 
Q 1922 4750 2215 4408 
Q 2509 4066 2509 3481 
Q 2509 2891 2217 2550 
Q 1925 2209 1428 2209 
Q 931 2209 642 2551 
Q 353 2894 353 3481 
Q 353 4063 643 4406 
Q 934 4750 1428 4750 
z
" transform="scale(0.015625)"/>
     </defs>
     <use xlink:href="#DejaVuSans-52"/>
     <use xlink:href="#DejaVuSans-66" transform="translate(69.482422 0)"/>
     <use xlink:href="#DejaVuSans-20" transform="translate(104.6875 0)"/>
     <use xlink:href="#DejaVuSans-20" transform="translate(136.474609 0)"/>
     <use xlink:href="#DejaVuSans-32" transform="translate(168.261719 0)"/>
     <use xlink:href="#DejaVuSans-6b" transform="translate(231.884766 0)"/>
     <use xlink:href="#DejaVuSans-20" transform="translate(289.794922 0)"/>
     <use xlink:href="#DejaVuSans-31" transform="translate(321.582031 0)"/>
     <use xlink:href="#DejaVuSans-25" transform="translate(385.205078 0)"/>
    </g>
   </g>
   <g id="text_10">
    <!-- Cf  2.2p C0G -->
    <g transform="translate(412.367453 16.472344) scale(0.11 -0.11)">
     <defs>
      <path id="DejaVuSans-2e" d="M 684 794 
L 1344 794 
L 1344 0 
L 684 0 
L 684 794 
z
" transform="scale(0.015625)"/>
      <path id="DejaVuSans-70" d="M 1159 525 
L 1159 -1331 
L 581 -1331 
L 581 3500 
L 1159 3500 
L 1159 2969 
Q 1341 3281 1617 3432 
Q 1894 3584 2278 3584 
Q 2916 3584 3314 3078 
Q 3713 2572 3713 1747 
Q 3713 922 3314 415 
Q 2916 -91 2278 -91 
Q 1894 -91 1617 61 
Q 1341 213 1159 525 
z
M 3116 1747 
Q 3116 2381 2855 2742 
Q 2594 3103 2138 3103 
Q 1681 3103 1420 2742 
Q 1159 2381 1159 1747 
Q 1159 1113 1420 752 
Q 1681 391 2138 391 
Q 2594 391 2855 752 
Q 3116 1113 3116 1747 
z
" transform="scale(0.015625)"/>
     </defs>
     <use xlink:href="#DejaVuSans-43"/>
     <use xlink:href="#DejaVuSans-66" transform="translate(69.824219 0)"/>
     <use xlink:href="#DejaVuSans-20" transform="translate(105.029297 0)"/>
     <use xlink:href="#DejaVuSans-20" transform="translate(136.816406 0)"/>
     <use xlink:href="#DejaVuSans-32" transform="translate(168.603516 0)"/>
     <use xlink:href="#DejaVuSans-2e" transform="translate(232.226562 0)"/>
     <use xlink:href="#DejaVuSans-32" transform="translate(264.013672 0)"/>
     <use xlink:href="#DejaVuSans-70" transform="translate(327.636719 0)"/>
     <use xlink:href="#DejaVuSans-20" transform="translate(391.113281 0)"/>
     <use xlink:href="#DejaVuSans-43" transform="translate(422.900391 0)"/>
     <use xlink:href="#DejaVuSans-30" transform="translate(492.724609 0)"/>
     <use xlink:href="#DejaVuSans-47" transform="translate(556.347656 0)"/>
    </g>
   </g>
   <g id="text_11">
    <!-- C2 -->
    <g transform="translate(247.428 356.672344) scale(0.11 -0.11)">
     <use xlink:href="#DejaVuSans-43"/>
     <use xlink:href="#DejaVuSans-32" transform="translate(69.824219 0)"/>
    </g>
    <!-- 100n -->
    <g transform="translate(247.428 367.318281) scale(0.11 -0.11)">
     <use xlink:href="#DejaVuSans-31"/>
     <use xlink:href="#DejaVuSans-30" transform="translate(63.623047 0)"/>
     <use xlink:href="#DejaVuSans-30" transform="translate(127.246094 0)"/>
     <use xlink:href="#DejaVuSans-6e" transform="translate(190.869141 0)"/>
    </g>
   </g>
   <g id="text_12">
    <!-- R3  1k -->
    <g transform="translate(184.926828 288.272344) scale(0.11 -0.11)">
     <use xlink:href="#DejaVuSans-52"/>
     <use xlink:href="#DejaVuSans-33" transform="translate(69.482422 0)"/>
     <use xlink:href="#DejaVuSans-20" transform="translate(133.105469 0)"/>
     <use xlink:href="#DejaVuSans-20" transform="translate(164.892578 0)"/>
     <use xlink:href="#DejaVuSans-31" transform="translate(196.679688 0)"/>
     <use xlink:href="#DejaVuSans-6b" transform="translate(260.302734 0)"/>
    </g>
   </g>
   <g id="text_13">
    <!-- U2 -->
    <g transform="translate(688.374456 148.592344) scale(0.11 -0.11)">
     <use xlink:href="#DejaVuSans-55"/>
     <use xlink:href="#DejaVuSans-32" transform="translate(73.193359 0)"/>
    </g>
    <!-- TLV3601 -->
    <g transform="translate(672.320471 159.238281) scale(0.11 -0.11)">
     <defs>
      <path id="DejaVuSans-54" d="M -19 4666 
L 3928 4666 
L 3928 4134 
L 2272 4134 
L 2272 0 
L 1638 0 
L 1638 4134 
L -19 4134 
L -19 4666 
z
" transform="scale(0.015625)"/>
      <path id="DejaVuSans-4c" d="M 628 4666 
L 1259 4666 
L 1259 531 
L 3531 531 
L 3531 0 
L 628 0 
L 628 4666 
z
" transform="scale(0.015625)"/>
     </defs>
     <use xlink:href="#DejaVuSans-54"/>
     <use xlink:href="#DejaVuSans-4c" transform="translate(61.083984 0)"/>
     <use xlink:href="#DejaVuSans-56" transform="translate(105.796875 0)"/>
     <use xlink:href="#DejaVuSans-33" transform="translate(174.205078 0)"/>
     <use xlink:href="#DejaVuSans-36" transform="translate(237.828125 0)"/>
     <use xlink:href="#DejaVuSans-30" transform="translate(301.451172 0)"/>
     <use xlink:href="#DejaVuSans-31" transform="translate(365.074219 0)"/>
    </g>
   </g>
   <g id="text_14">
    <!-- C3 -->
    <g transform="translate(562.288078 88.446406) scale(0.11 -0.11)">
     <use xlink:href="#DejaVuSans-43"/>
     <use xlink:href="#DejaVuSans-33" transform="translate(69.824219 0)"/>
    </g>
    <!-- 100n -->
    <g transform="translate(555.64425 99.092344) scale(0.11 -0.11)">
     <use xlink:href="#DejaVuSans-31"/>
     <use xlink:href="#DejaVuSans-30" transform="translate(63.623047 0)"/>
     <use xlink:href="#DejaVuSans-30" transform="translate(127.246094 0)"/>
     <use xlink:href="#DejaVuSans-6e" transform="translate(190.869141 0)"/>
    </g>
   </g>
   <g id="text_15">
    <!-- R4  1k -->
    <g transform="translate(607.428 46.815312) scale(0.11 -0.11)">
     <defs>
      <path id="DejaVuSans-34" d="M 2419 4116 
L 825 1625 
L 2419 1625 
L 2419 4116 
z
M 2253 4666 
L 3047 4666 
L 3047 1625 
L 3713 1625 
L 3713 1100 
L 3047 1100 
L 3047 0 
L 2419 0 
L 2419 1100 
L 313 1100 
L 313 1709 
L 2253 4666 
z
" transform="scale(0.015625)"/>
     </defs>
     <use xlink:href="#DejaVuSans-52"/>
     <use xlink:href="#DejaVuSans-34" transform="translate(69.482422 0)"/>
     <use xlink:href="#DejaVuSans-20" transform="translate(133.105469 0)"/>
     <use xlink:href="#DejaVuSans-20" transform="translate(164.892578 0)"/>
     <use xlink:href="#DejaVuSans-31" transform="translate(196.679688 0)"/>
     <use xlink:href="#DejaVuSans-6b" transform="translate(260.302734 0)"/>
    </g>
   </g>
   <g id="text_16">
    <!-- R5  33 -->
    <g transform="translate(775.554583 171.992344) scale(0.11 -0.11)">
     <use xlink:href="#DejaVuSans-52"/>
     <use xlink:href="#DejaVuSans-35" transform="translate(69.482422 0)"/>
     <use xlink:href="#DejaVuSans-20" transform="translate(133.105469 0)"/>
     <use xlink:href="#DejaVuSans-20" transform="translate(164.892578 0)"/>
     <use xlink:href="#DejaVuSans-33" transform="translate(196.679688 0)"/>
     <use xlink:href="#DejaVuSans-33" transform="translate(260.302734 0)"/>
    </g>
   </g>
   <g id="patch_7">
    <path d="M 65.628 59.26 
C 66.344048 59.26 67.030866 58.975511 67.537188 58.469188 
C 68.043511 57.962866 68.328 57.276048 68.328 56.56 
C 68.328 55.843952 68.043511 55.157134 67.537188 54.650812 
C 67.030866 54.144489 66.344048 53.86 65.628 53.86 
C 64.911952 53.86 64.225134 54.144489 63.718812 54.650812 
C 63.212489 55.157134 62.928 55.843952 62.928 56.56 
C 62.928 57.276048 63.212489 57.962866 63.718812 58.469188 
C 64.225134 58.975511 64.911952 59.26 65.628 59.26 
z
" clip-path="url(#pe5a6a8bcc9)" style="fill: #ffffff; stroke: #000000; stroke-width: 2; stroke-linejoin: miter"/>
   </g>
   <g id="text_17">
    <!-- HV_QUIET -->
    <g transform="translate(4.407063 54.022266) scale(0.11 -0.11)">
     <defs>
      <path id="DejaVuSans-48" d="M 628 4666 
L 1259 4666 
L 1259 2753 
L 3553 2753 
L 3553 4666 
L 4184 4666 
L 4184 0 
L 3553 0 
L 3553 2222 
L 1259 2222 
L 1259 0 
L 628 0 
L 628 4666 
z
" transform="scale(0.015625)"/>
      <path id="DejaVuSans-5f" d="M 3263 -1063 
L 3263 -1509 
L -63 -1509 
L -63 -1063 
L 3263 -1063 
z
" transform="scale(0.015625)"/>
      <path id="DejaVuSans-51" d="M 2522 4238 
Q 1834 4238 1429 3725 
Q 1025 3213 1025 2328 
Q 1025 1447 1429 934 
Q 1834 422 2522 422 
Q 3209 422 3611 934 
Q 4013 1447 4013 2328 
Q 4013 3213 3611 3725 
Q 3209 4238 2522 4238 
z
M 3406 84 
L 4238 -825 
L 3475 -825 
L 2784 -78 
Q 2681 -84 2626 -87 
Q 2572 -91 2522 -91 
Q 1538 -91 948 567 
Q 359 1225 359 2328 
Q 359 3434 948 4092 
Q 1538 4750 2522 4750 
Q 3503 4750 4090 4092 
Q 4678 3434 4678 2328 
Q 4678 1516 4351 937 
Q 4025 359 3406 84 
z
" transform="scale(0.015625)"/>
      <path id="DejaVuSans-49" d="M 628 4666 
L 1259 4666 
L 1259 0 
L 628 0 
L 628 4666 
z
" transform="scale(0.015625)"/>
     </defs>
     <use xlink:href="#DejaVuSans-48"/>
     <use xlink:href="#DejaVuSans-56" transform="translate(75.195312 0)"/>
     <use xlink:href="#DejaVuSans-5f" transform="translate(143.603516 0)"/>
     <use xlink:href="#DejaVuSans-51" transform="translate(193.603516 0)"/>
     <use xlink:href="#DejaVuSans-55" transform="translate(272.314453 0)"/>
     <use xlink:href="#DejaVuSans-49" transform="translate(345.507812 0)"/>
     <use xlink:href="#DejaVuSans-45" transform="translate(375 0)"/>
     <use xlink:href="#DejaVuSans-54" transform="translate(438.183594 0)"/>
    </g>
    <!-- +32.4 V -->
    <g transform="translate(14.597531 64.974141) scale(0.11 -0.11)">
     <use xlink:href="#DejaVuSans-2b"/>
     <use xlink:href="#DejaVuSans-33" transform="translate(83.789062 0)"/>
     <use xlink:href="#DejaVuSans-32" transform="translate(147.412109 0)"/>
     <use xlink:href="#DejaVuSans-2e" transform="translate(211.035156 0)"/>
     <use xlink:href="#DejaVuSans-34" transform="translate(242.822266 0)"/>
     <use xlink:href="#DejaVuSans-20" transform="translate(306.445312 0)"/>
     <use xlink:href="#DejaVuSans-56" transform="translate(338.232422 0)"/>
    </g>
   </g>
   <g id="patch_8">
    <path d="M 137.628 59.26 
C 138.344048 59.26 139.030866 58.975511 139.537188 58.469188 
C 140.043511 57.962866 140.328 57.276048 140.328 56.56 
C 140.328 55.843952 140.043511 55.157134 139.537188 54.650812 
C 139.030866 54.144489 138.344048 53.86 137.628 53.86 
C 136.911952 53.86 136.225134 54.144489 135.718812 54.650812 
C 135.212489 55.157134 134.928 55.843952 134.928 56.56 
C 134.928 57.276048 135.212489 57.962866 135.718812 58.469188 
C 136.225134 58.975511 136.911952 59.26 137.628 59.26 
z
" clip-path="url(#pe5a6a8bcc9)" style="stroke: #000000; stroke-width: 2; stroke-linejoin: miter"/>
   </g>
   <g id="text_18">
    <!-- CATH -->
    <g transform="translate(122.955891 47.972344) scale(0.11 -0.11)">
     <use xlink:href="#DejaVuSans-43"/>
     <use xlink:href="#DejaVuSans-41" transform="translate(69.824219 0)"/>
     <use xlink:href="#DejaVuSans-54" transform="translate(130.482422 0)"/>
     <use xlink:href="#DejaVuSans-48" transform="translate(191.566406 0)"/>
    </g>
   </g>
   <g id="patch_9">
    <path d="M 252.828 59.26 
C 253.544048 59.26 254.230866 58.975511 254.737188 58.469188 
C 255.243511 57.962866 255.528 57.276048 255.528 56.56 
C 255.528 55.843952 255.243511 55.157134 254.737188 54.650812 
C 254.230866 54.144489 253.544048 53.86 252.828 53.86 
C 252.111952 53.86 251.425134 54.144489 250.918812 54.650812 
C 250.412489 55.157134 250.128 55.843952 250.128 56.56 
C 250.128 57.276048 250.412489 57.962866 250.918812 58.469188 
C 251.425134 58.975511 252.111952 59.26 252.828 59.26 
z
" clip-path="url(#pe5a6a8bcc9)" style="stroke: #000000; stroke-width: 2; stroke-linejoin: miter"/>
   </g>
   <g id="patch_10">
    <path d="M 252.828 167.26 
C 253.544048 167.26 254.230866 166.975511 254.737188 166.469188 
C 255.243511 165.962866 255.528 165.276048 255.528 164.56 
C 255.528 163.843952 255.243511 163.157134 254.737188 162.650812 
C 254.230866 162.144489 253.544048 161.86 252.828 161.86 
C 252.111952 161.86 251.425134 162.144489 250.918812 162.650812 
C 250.412489 163.157134 250.128 163.843952 250.128 164.56 
C 250.128 165.276048 250.412489 165.962866 250.918812 166.469188 
C 251.425134 166.975511 252.111952 167.26 252.828 167.26 
z
" clip-path="url(#pe5a6a8bcc9)" style="stroke: #000000; stroke-width: 2; stroke-linejoin: miter"/>
   </g>
   <g id="patch_11">
    <path d="M 324.828 167.26 
C 325.544048 167.26 326.230866 166.975511 326.737188 166.469188 
C 327.243511 165.962866 327.528 165.276048 327.528 164.56 
C 327.528 163.843952 327.243511 163.157134 326.737188 162.650812 
C 326.230866 162.144489 325.544048 161.86 324.828 161.86 
C 324.111952 161.86 323.425134 162.144489 322.918812 162.650812 
C 322.412489 163.157134 322.128 163.843952 322.128 164.56 
C 322.128 165.276048 322.412489 165.962866 322.918812 166.469188 
C 323.425134 166.975511 324.111952 167.26 324.828 167.26 
z
" clip-path="url(#pe5a6a8bcc9)" style="stroke: #000000; stroke-width: 2; stroke-linejoin: miter"/>
   </g>
   <g id="text_19">
    <!-- INA -->
    <g transform="translate(308.128469 179.218281) scale(0.11 -0.11)">
     <defs>
      <path id="DejaVuSans-4e" d="M 628 4666 
L 1478 4666 
L 3547 763 
L 3547 4666 
L 4159 4666 
L 4159 0 
L 3309 0 
L 1241 3903 
L 1241 0 
L 628 0 
L 628 4666 
z
" transform="scale(0.015625)"/>
     </defs>
     <use xlink:href="#DejaVuSans-49"/>
     <use xlink:href="#DejaVuSans-4e" transform="translate(29.492188 0)"/>
     <use xlink:href="#DejaVuSans-41" transform="translate(104.296875 0)"/>
    </g>
   </g>
   <g id="patch_12">
    <path d="M 324.828 134.86 
C 325.544048 134.86 326.230866 134.575511 326.737188 134.069188 
C 327.243511 133.562866 327.528 132.876048 327.528 132.16 
C 327.528 131.443952 327.243511 130.757134 326.737188 130.250812 
C 326.230866 129.744489 325.544048 129.46 324.828 129.46 
C 324.111952 129.46 323.425134 129.744489 322.918812 130.250812 
C 322.412489 130.757134 322.128 131.443952 322.128 132.16 
C 322.128 132.876048 322.412489 133.562866 322.918812 134.069188 
C 323.425134 134.575511 324.111952 134.86 324.828 134.86 
z
" clip-path="url(#pe5a6a8bcc9)" style="stroke: #000000; stroke-width: 2; stroke-linejoin: miter"/>
   </g>
   <g id="patch_13">
    <path d="M 382.428 80.86 
C 383.144048 80.86 383.830866 80.575511 384.337188 80.069188 
C 384.843511 79.562866 385.128 78.876048 385.128 78.16 
C 385.128 77.443952 384.843511 76.757134 384.337188 76.250812 
C 383.830866 75.744489 383.144048 75.46 382.428 75.46 
C 381.711952 75.46 381.025134 75.744489 380.518812 76.250812 
C 380.012489 76.757134 379.728 77.443952 379.728 78.16 
C 379.728 78.876048 380.012489 79.562866 380.518812 80.069188 
C 381.025134 80.575511 381.711952 80.86 382.428 80.86 
z
" clip-path="url(#pe5a6a8bcc9)" style="stroke: #000000; stroke-width: 2; stroke-linejoin: miter"/>
   </g>
   <g id="patch_14">
    <path d="M 512.028 80.86 
C 512.744048 80.86 513.430866 80.575511 513.937188 80.069188 
C 514.443511 79.562866 514.728 78.876048 514.728 78.16 
C 514.728 77.443952 514.443511 76.757134 513.937188 76.250812 
C 513.430866 75.744489 512.744048 75.46 512.028 75.46 
C 511.311952 75.46 510.625134 75.744489 510.118812 76.250812 
C 509.612489 76.757134 509.328 77.443952 509.328 78.16 
C 509.328 78.876048 509.612489 79.562866 510.118812 80.069188 
C 510.625134 80.575511 511.311952 80.86 512.028 80.86 
z
" clip-path="url(#pe5a6a8bcc9)" style="stroke: #000000; stroke-width: 2; stroke-linejoin: miter"/>
   </g>
   <g id="patch_15">
    <path d="M 512.028 189.76 
C 512.744048 189.76 513.430866 189.475511 513.937188 188.969188 
C 514.443511 188.462866 514.728 187.776048 514.728 187.06 
C 514.728 186.343952 514.443511 185.657134 513.937188 185.150812 
C 513.430866 184.644489 512.744048 184.36 512.028 184.36 
C 511.311952 184.36 510.625134 184.644489 510.118812 185.150812 
C 509.612489 185.657134 509.328 186.343952 509.328 187.06 
C 509.328 187.776048 509.612489 188.462866 510.118812 188.969188 
C 510.625134 189.475511 511.311952 189.76 512.028 189.76 
z
" clip-path="url(#pe5a6a8bcc9)" style="stroke: #000000; stroke-width: 2; stroke-linejoin: miter"/>
   </g>
   <g id="patch_16">
    <path d="M 238.428 305.86 
C 239.144048 305.86 239.830866 305.575511 240.337188 305.069188 
C 240.843511 304.562866 241.128 303.876048 241.128 303.16 
C 241.128 302.443952 240.843511 301.757134 240.337188 301.250812 
C 239.830866 300.744489 239.144048 300.46 238.428 300.46 
C 237.711952 300.46 237.025134 300.744489 236.518812 301.250812 
C 236.012489 301.757134 235.728 302.443952 235.728 303.16 
C 235.728 303.876048 236.012489 304.562866 236.518812 305.069188 
C 237.025134 305.575511 237.711952 305.86 238.428 305.86 
z
" clip-path="url(#pe5a6a8bcc9)" style="stroke: #000000; stroke-width: 2; stroke-linejoin: miter"/>
   </g>
   <g id="patch_17">
    <path d="M 166.428 305.86 
C 167.144048 305.86 167.830866 305.575511 168.337188 305.069188 
C 168.843511 304.562866 169.128 303.876048 169.128 303.16 
C 169.128 302.443952 168.843511 301.757134 168.337188 301.250812 
C 167.830866 300.744489 167.144048 300.46 166.428 300.46 
C 165.711952 300.46 165.025134 300.744489 164.518812 301.250812 
C 164.012489 301.757134 163.728 302.443952 163.728 303.16 
C 163.728 303.876048 164.012489 304.562866 164.518812 305.069188 
C 165.025134 305.575511 165.711952 305.86 166.428 305.86 
z
" clip-path="url(#pe5a6a8bcc9)" style="fill: #ffffff; stroke: #000000; stroke-width: 2; stroke-linejoin: miter"/>
   </g>
   <g id="text_20">
    <!-- CHx_VBOT (DAC4-7) -->
    <g transform="translate(48.570813 300.713359) scale(0.11 -0.11)">
     <defs>
      <path id="DejaVuSans-78" d="M 3513 3500 
L 2247 1797 
L 3578 0 
L 2900 0 
L 1881 1375 
L 863 0 
L 184 0 
L 1544 1831 
L 300 3500 
L 978 3500 
L 1906 2253 
L 2834 3500 
L 3513 3500 
z
" transform="scale(0.015625)"/>
      <path id="DejaVuSans-28" d="M 1984 4856 
Q 1566 4138 1362 3434 
Q 1159 2731 1159 2009 
Q 1159 1288 1364 580 
Q 1569 -128 1984 -844 
L 1484 -844 
Q 1016 -109 783 600 
Q 550 1309 550 2009 
Q 550 2706 781 3412 
Q 1013 4119 1484 4856 
L 1984 4856 
z
" transform="scale(0.015625)"/>
      <path id="DejaVuSans-37" d="M 525 4666 
L 3525 4666 
L 3525 4397 
L 1831 0 
L 1172 0 
L 2766 4134 
L 525 4134 
L 525 4666 
z
" transform="scale(0.015625)"/>
      <path id="DejaVuSans-29" d="M 513 4856 
L 1013 4856 
Q 1481 4119 1714 3412 
Q 1947 2706 1947 2009 
Q 1947 1309 1714 600 
Q 1481 -109 1013 -844 
L 513 -844 
Q 928 -128 1133 580 
Q 1338 1288 1338 2009 
Q 1338 2731 1133 3434 
Q 928 4138 513 4856 
z
" transform="scale(0.015625)"/>
     </defs>
     <use xlink:href="#DejaVuSans-43"/>
     <use xlink:href="#DejaVuSans-48" transform="translate(69.824219 0)"/>
     <use xlink:href="#DejaVuSans-78" transform="translate(145.019531 0)"/>
     <use xlink:href="#DejaVuSans-5f" transform="translate(204.199219 0)"/>
     <use xlink:href="#DejaVuSans-56" transform="translate(254.199219 0)"/>
     <use xlink:href="#DejaVuSans-42" transform="translate(322.607422 0)"/>
     <use xlink:href="#DejaVuSans-4f" transform="translate(389.460938 0)"/>
     <use xlink:href="#DejaVuSans-54" transform="translate(468.171875 0)"/>
     <use xlink:href="#DejaVuSans-20" transform="translate(529.255859 0)"/>
     <use xlink:href="#DejaVuSans-28" transform="translate(561.042969 0)"/>
     <use xlink:href="#DejaVuSans-44" transform="translate(600.056641 0)"/>
     <use xlink:href="#DejaVuSans-41" transform="translate(675.308594 0)"/>
     <use xlink:href="#DejaVuSans-43" transform="translate(741.966797 0)"/>
     <use xlink:href="#DejaVuSans-34" transform="translate(811.791016 0)"/>
     <use xlink:href="#DejaVuSans-2d" transform="translate(875.414062 0)"/>
     <use xlink:href="#DejaVuSans-37" transform="translate(911.498047 0)"/>
     <use xlink:href="#DejaVuSans-29" transform="translate(975.121094 0)"/>
    </g>
    <!-- 2.40 V baseline -->
    <g transform="translate(75.044719 311.665234) scale(0.11 -0.11)">
     <defs>
      <path id="DejaVuSans-73" d="M 2834 3397 
L 2834 2853 
Q 2591 2978 2328 3040 
Q 2066 3103 1784 3103 
Q 1356 3103 1142 2972 
Q 928 2841 928 2578 
Q 928 2378 1081 2264 
Q 1234 2150 1697 2047 
L 1894 2003 
Q 2506 1872 2764 1633 
Q 3022 1394 3022 966 
Q 3022 478 2636 193 
Q 2250 -91 1575 -91 
Q 1294 -91 989 -36 
Q 684 19 347 128 
L 347 722 
Q 666 556 975 473 
Q 1284 391 1588 391 
Q 1994 391 2212 530 
Q 2431 669 2431 922 
Q 2431 1156 2273 1281 
Q 2116 1406 1581 1522 
L 1381 1569 
Q 847 1681 609 1914 
Q 372 2147 372 2553 
Q 372 3047 722 3315 
Q 1072 3584 1716 3584 
Q 2034 3584 2315 3537 
Q 2597 3491 2834 3397 
z
" transform="scale(0.015625)"/>
      <path id="DejaVuSans-65" d="M 3597 1894 
L 3597 1613 
L 953 1613 
Q 991 1019 1311 708 
Q 1631 397 2203 397 
Q 2534 397 2845 478 
Q 3156 559 3463 722 
L 3463 178 
Q 3153 47 2828 -22 
Q 2503 -91 2169 -91 
Q 1331 -91 842 396 
Q 353 884 353 1716 
Q 353 2575 817 3079 
Q 1281 3584 2069 3584 
Q 2775 3584 3186 3129 
Q 3597 2675 3597 1894 
z
M 3022 2063 
Q 3016 2534 2758 2815 
Q 2500 3097 2075 3097 
Q 1594 3097 1305 2825 
Q 1016 2553 972 2059 
L 3022 2063 
z
" transform="scale(0.015625)"/>
      <path id="DejaVuSans-6c" d="M 603 4863 
L 1178 4863 
L 1178 0 
L 603 0 
L 603 4863 
z
" transform="scale(0.015625)"/>
      <path id="DejaVuSans-69" d="M 603 3500 
L 1178 3500 
L 1178 0 
L 603 0 
L 603 3500 
z
M 603 4863 
L 1178 4863 
L 1178 4134 
L 603 4134 
L 603 4863 
z
" transform="scale(0.015625)"/>
     </defs>
     <use xlink:href="#DejaVuSans-32"/>
     <use xlink:href="#DejaVuSans-2e" transform="translate(63.623047 0)"/>
     <use xlink:href="#DejaVuSans-34" transform="translate(95.410156 0)"/>
     <use xlink:href="#DejaVuSans-30" transform="translate(159.033203 0)"/>
     <use xlink:href="#DejaVuSans-20" transform="translate(222.65625 0)"/>
     <use xlink:href="#DejaVuSans-56" transform="translate(254.443359 0)"/>
     <use xlink:href="#DejaVuSans-20" transform="translate(322.851562 0)"/>
     <use xlink:href="#DejaVuSans-62" transform="translate(354.638672 0)"/>
     <use xlink:href="#DejaVuSans-61" transform="translate(418.115234 0)"/>
     <use xlink:href="#DejaVuSans-73" transform="translate(479.394531 0)"/>
     <use xlink:href="#DejaVuSans-65" transform="translate(531.494141 0)"/>
     <use xlink:href="#DejaVuSans-6c" transform="translate(593.017578 0)"/>
     <use xlink:href="#DejaVuSans-69" transform="translate(620.800781 0)"/>
     <use xlink:href="#DejaVuSans-6e" transform="translate(648.583984 0)"/>
     <use xlink:href="#DejaVuSans-65" transform="translate(711.962891 0)"/>
    </g>
   </g>
   <g id="patch_18">
    <path d="M 569.628 189.76 
C 570.344048 189.76 571.030866 189.475511 571.537188 188.969188 
C 572.043511 188.462866 572.328 187.776048 572.328 187.06 
C 572.328 186.343952 572.043511 185.657134 571.537188 185.150812 
C 571.030866 184.644489 570.344048 184.36 569.628 184.36 
C 568.911952 184.36 568.225134 184.644489 567.718812 185.150812 
C 567.212489 185.657134 566.928 186.343952 566.928 187.06 
C 566.928 187.776048 567.212489 188.462866 567.718812 188.969188 
C 568.225134 189.475511 568.911952 189.76 569.628 189.76 
z
" clip-path="url(#pe5a6a8bcc9)" style="stroke: #000000; stroke-width: 2; stroke-linejoin: miter"/>
   </g>
   <g id="text_21">
    <!-- TIA_OUT -->
    <g transform="translate(546.419719 178.166406) scale(0.11 -0.11)">
     <use xlink:href="#DejaVuSans-54"/>
     <use xlink:href="#DejaVuSans-49" transform="translate(61.083984 0)"/>
     <use xlink:href="#DejaVuSans-41" transform="translate(90.576172 0)"/>
     <use xlink:href="#DejaVuSans-5f" transform="translate(158.984375 0)"/>
     <use xlink:href="#DejaVuSans-4f" transform="translate(208.984375 0)"/>
     <use xlink:href="#DejaVuSans-55" transform="translate(287.695312 0)"/>
     <use xlink:href="#DejaVuSans-54" transform="translate(360.888672 0)"/>
    </g>
   </g>
   <g id="patch_19">
    <path d="M 598.428 109.48 
C 599.144048 109.48 599.830866 109.195511 600.337188 108.689188 
C 600.843511 108.182866 601.128 107.496048 601.128 106.78 
C 601.128 106.063952 600.843511 105.377134 600.337188 104.870812 
C 599.830866 104.364489 599.144048 104.08 598.428 104.08 
C 597.711952 104.08 597.025134 104.364489 596.518812 104.870812 
C 596.012489 105.377134 595.728 106.063952 595.728 106.78 
C 595.728 107.496048 596.012489 108.182866 596.518812 108.689188 
C 597.025134 109.195511 597.711952 109.48 598.428 109.48 
z
" clip-path="url(#pe5a6a8bcc9)" style="stroke: #000000; stroke-width: 2; stroke-linejoin: miter"/>
   </g>
   <g id="patch_20">
    <path d="M 598.428 37.48 
C 599.144048 37.48 599.830866 37.195511 600.337188 36.689188 
C 600.843511 36.182866 601.128 35.496048 601.128 34.78 
C 601.128 34.063952 600.843511 33.377134 600.337188 32.870812 
C 599.830866 32.364489 599.144048 32.08 598.428 32.08 
C 597.711952 32.08 597.025134 32.364489 596.518812 32.870812 
C 596.012489 33.377134 595.728 34.063952 595.728 34.78 
C 595.728 35.496048 596.012489 36.182866 596.518812 36.689188 
C 597.025134 37.195511 597.711952 37.48 598.428 37.48 
z
" clip-path="url(#pe5a6a8bcc9)" style="fill: #ffffff; stroke: #000000; stroke-width: 2; stroke-linejoin: miter"/>
   </g>
   <g id="text_22">
    <!-- CHx_THRESH (DAC0-3) -->
    <g transform="translate(535.357609 13.440469) scale(0.11 -0.11)">
     <use xlink:href="#DejaVuSans-43"/>
     <use xlink:href="#DejaVuSans-48" transform="translate(69.824219 0)"/>
     <use xlink:href="#DejaVuSans-78" transform="translate(145.019531 0)"/>
     <use xlink:href="#DejaVuSans-5f" transform="translate(204.199219 0)"/>
     <use xlink:href="#DejaVuSans-54" transform="translate(254.199219 0)"/>
     <use xlink:href="#DejaVuSans-48" transform="translate(315.283203 0)"/>
     <use xlink:href="#DejaVuSans-52" transform="translate(390.478516 0)"/>
     <use xlink:href="#DejaVuSans-45" transform="translate(459.960938 0)"/>
     <use xlink:href="#DejaVuSans-53" transform="translate(523.144531 0)"/>
     <use xlink:href="#DejaVuSans-48" transform="translate(586.621094 0)"/>
     <use xlink:href="#DejaVuSans-20" transform="translate(661.816406 0)"/>
     <use xlink:href="#DejaVuSans-28" transform="translate(693.603516 0)"/>
     <use xlink:href="#DejaVuSans-44" transform="translate(732.617188 0)"/>
     <use xlink:href="#DejaVuSans-41" transform="translate(807.869141 0)"/>
     <use xlink:href="#DejaVuSans-43" transform="translate(874.527344 0)"/>
     <use xlink:href="#DejaVuSans-30" transform="translate(944.351562 0)"/>
     <use xlink:href="#DejaVuSans-2d" transform="translate(1007.974609 0)"/>
     <use xlink:href="#DejaVuSans-33" transform="translate(1044.058594 0)"/>
     <use xlink:href="#DejaVuSans-29" transform="translate(1107.681641 0)"/>
    </g>
    <!-- 2.326 V = 3 p.e. -->
    <g transform="translate(553.448313 24.392344) scale(0.11 -0.11)">
     <defs>
      <path id="DejaVuSans-3d" d="M 678 2906 
L 4684 2906 
L 4684 2381 
L 678 2381 
L 678 2906 
z
M 678 1631 
L 4684 1631 
L 4684 1100 
L 678 1100 
L 678 1631 
z
" transform="scale(0.015625)"/>
     </defs>
     <use xlink:href="#DejaVuSans-32"/>
     <use xlink:href="#DejaVuSans-2e" transform="translate(63.623047 0)"/>
     <use xlink:href="#DejaVuSans-33" transform="translate(95.410156 0)"/>
     <use xlink:href="#DejaVuSans-32" transform="translate(159.033203 0)"/>
     <use xlink:href="#DejaVuSans-36" transform="translate(222.65625 0)"/>
     <use xlink:href="#DejaVuSans-20" transform="translate(286.279297 0)"/>
     <use xlink:href="#DejaVuSans-56" transform="translate(318.066406 0)"/>
     <use xlink:href="#DejaVuSans-20" transform="translate(386.474609 0)"/>
     <use xlink:href="#DejaVuSans-3d" transform="translate(418.261719 0)"/>
     <use xlink:href="#DejaVuSans-20" transform="translate(502.050781 0)"/>
     <use xlink:href="#DejaVuSans-33" transform="translate(533.837891 0)"/>
     <use xlink:href="#DejaVuSans-20" transform="translate(597.460938 0)"/>
     <use xlink:href="#DejaVuSans-70" transform="translate(629.248047 0)"/>
     <use xlink:href="#DejaVuSans-2e" transform="translate(692.724609 0)"/>
     <use xlink:href="#DejaVuSans-65" transform="translate(724.511719 0)"/>
     <use xlink:href="#DejaVuSans-2e" transform="translate(786.035156 0)"/>
    </g>
   </g>
   <g id="patch_21">
    <path d="M 854.570286 189.58 
C 855.286335 189.58 855.973152 189.295511 856.479475 188.789188 
C 856.985797 188.282866 857.270286 187.596048 857.270286 186.88 
C 857.270286 186.163952 856.985797 185.477134 856.479475 184.970812 
C 855.973152 184.464489 855.286335 184.18 854.570286 184.18 
C 853.854238 184.18 853.167421 184.464489 852.661098 184.970812 
C 852.154775 185.477134 851.870286 186.163952 851.870286 186.88 
C 851.870286 187.596048 852.154775 188.282866 852.661098 188.789188 
C 853.167421 189.295511 853.854238 189.58 854.570286 189.58 
z
" clip-path="url(#pe5a6a8bcc9)" style="fill: #ffffff; stroke: #000000; stroke-width: 2; stroke-linejoin: miter"/>
   </g>
   <g id="text_23">
    <!-- CHx_CMP → iCE40 -->
    <g transform="translate(860.870286 184.439375) scale(0.11 -0.11)">
     <defs>
      <path id="DejaVuSans-4d" d="M 628 4666 
L 1569 4666 
L 2759 1491 
L 3956 4666 
L 4897 4666 
L 4897 0 
L 4281 0 
L 4281 4097 
L 3078 897 
L 2444 897 
L 1241 4097 
L 1241 0 
L 628 0 
L 628 4666 
z
" transform="scale(0.015625)"/>
      <path id="DejaVuSans-2192" d="M 5050 2147 
L 5050 1866 
L 3822 638 
L 3447 1013 
L 4175 1741 
L 366 1741 
L 366 2272 
L 4175 2272 
L 3447 3000 
L 3822 3375 
L 5050 2147 
z
" transform="scale(0.015625)"/>
     </defs>
     <use xlink:href="#DejaVuSans-43"/>
     <use xlink:href="#DejaVuSans-48" transform="translate(69.824219 0)"/>
     <use xlink:href="#DejaVuSans-78" transform="translate(145.019531 0)"/>
     <use xlink:href="#DejaVuSans-5f" transform="translate(204.199219 0)"/>
     <use xlink:href="#DejaVuSans-43" transform="translate(254.199219 0)"/>
     <use xlink:href="#DejaVuSans-4d" transform="translate(324.023438 0)"/>
     <use xlink:href="#DejaVuSans-50" transform="translate(410.302734 0)"/>
     <use xlink:href="#DejaVuSans-20" transform="translate(470.605469 0)"/>
     <use xlink:href="#DejaVuSans-2192" transform="translate(502.392578 0)"/>
     <use xlink:href="#DejaVuSans-20" transform="translate(586.181641 0)"/>
     <use xlink:href="#DejaVuSans-69" transform="translate(617.96875 0)"/>
     <use xlink:href="#DejaVuSans-43" transform="translate(645.751953 0)"/>
     <use xlink:href="#DejaVuSans-45" transform="translate(715.576172 0)"/>
     <use xlink:href="#DejaVuSans-34" transform="translate(778.759766 0)"/>
     <use xlink:href="#DejaVuSans-30" transform="translate(842.382812 0)"/>
    </g>
    <!-- idle HIGH, pulse LOW -->
    <g transform="translate(860.870286 195.39125) scale(0.11 -0.11)">
     <defs>
      <path id="DejaVuSans-64" d="M 2906 2969 
L 2906 4863 
L 3481 4863 
L 3481 0 
L 2906 0 
L 2906 525 
Q 2725 213 2448 61 
Q 2172 -91 1784 -91 
Q 1150 -91 751 415 
Q 353 922 353 1747 
Q 353 2572 751 3078 
Q 1150 3584 1784 3584 
Q 2172 3584 2448 3432 
Q 2725 3281 2906 2969 
z
M 947 1747 
Q 947 1113 1208 752 
Q 1469 391 1925 391 
Q 2381 391 2643 752 
Q 2906 1113 2906 1747 
Q 2906 2381 2643 2742 
Q 2381 3103 1925 3103 
Q 1469 3103 1208 2742 
Q 947 2381 947 1747 
z
" transform="scale(0.015625)"/>
      <path id="DejaVuSans-2c" d="M 750 794 
L 1409 794 
L 1409 256 
L 897 -744 
L 494 -744 
L 750 256 
L 750 794 
z
" transform="scale(0.015625)"/>
      <path id="DejaVuSans-75" d="M 544 1381 
L 544 3500 
L 1119 3500 
L 1119 1403 
Q 1119 906 1312 657 
Q 1506 409 1894 409 
Q 2359 409 2629 706 
Q 2900 1003 2900 1516 
L 2900 3500 
L 3475 3500 
L 3475 0 
L 2900 0 
L 2900 538 
Q 2691 219 2414 64 
Q 2138 -91 1772 -91 
Q 1169 -91 856 284 
Q 544 659 544 1381 
z
M 1991 3584 
L 1991 3584 
z
" transform="scale(0.015625)"/>
      <path id="DejaVuSans-57" d="M 213 4666 
L 850 4666 
L 1831 722 
L 2809 4666 
L 3519 4666 
L 4500 722 
L 5478 4666 
L 6119 4666 
L 4947 0 
L 4153 0 
L 3169 4050 
L 2175 0 
L 1381 0 
L 213 4666 
z
" transform="scale(0.015625)"/>
     </defs>
     <use xlink:href="#DejaVuSans-69"/>
     <use xlink:href="#DejaVuSans-64" transform="translate(27.783203 0)"/>
     <use xlink:href="#DejaVuSans-6c" transform="translate(91.259766 0)"/>
     <use xlink:href="#DejaVuSans-65" transform="translate(119.042969 0)"/>
     <use xlink:href="#DejaVuSans-20" transform="translate(180.566406 0)"/>
     <use xlink:href="#DejaVuSans-48" transform="translate(212.353516 0)"/>
     <use xlink:href="#DejaVuSans-49" transform="translate(287.548828 0)"/>
     <use xlink:href="#DejaVuSans-47" transform="translate(317.041016 0)"/>
     <use xlink:href="#DejaVuSans-48" transform="translate(394.53125 0)"/>
     <use xlink:href="#DejaVuSans-2c" transform="translate(469.726562 0)"/>
     <use xlink:href="#DejaVuSans-20" transform="translate(501.513672 0)"/>
     <use xlink:href="#DejaVuSans-70" transform="translate(533.300781 0)"/>
     <use xlink:href="#DejaVuSans-75" transform="translate(596.777344 0)"/>
     <use xlink:href="#DejaVuSans-6c" transform="translate(660.15625 0)"/>
     <use xlink:href="#DejaVuSans-73" transform="translate(687.939453 0)"/>
     <use xlink:href="#DejaVuSans-65" transform="translate(740.039062 0)"/>
     <use xlink:href="#DejaVuSans-20" transform="translate(801.5625 0)"/>
     <use xlink:href="#DejaVuSans-4c" transform="translate(833.349609 0)"/>
     <use xlink:href="#DejaVuSans-4f" transform="translate(885.4375 0)"/>
     <use xlink:href="#DejaVuSans-57" transform="translate(964.148438 0)"/>
    </g>
   </g>
  </g>
 </g>
 <defs>
  <clipPath id="pe5a6a8bcc9">
   <rect x="0" y="0" width="973.526286" height="402.88"/>
  </clipPath>
 </defs>
</svg>
